<svg width="27" height="21" viewBox="0 0 27 21" fill="none" xmlns="http://www.w3.org/2000/svg">
<path d="M25.6441 0.248047H1.75664C1.24846 0.248047 0.837891 0.658613 0.837891 1.1668V19.5418C0.837891 20.05 1.24846 20.4605 1.75664 20.4605H25.6441C26.1523 20.4605 26.5629 20.05 26.5629 19.5418V1.1668C26.5629 0.658613 26.1523 0.248047 25.6441 0.248047ZM23.3243 3.37467L14.266 10.4232C14.0421 10.5983 13.7291 10.5983 13.5052 10.4232L4.44398 3.37467C4.40983 3.34831 4.38477 3.31192 4.37234 3.2706C4.3599 3.22929 4.3607 3.18512 4.37463 3.14428C4.38856 3.10345 4.41492 3.06799 4.45001 3.04289C4.4851 3.01778 4.52717 3.00429 4.57031 3.0043H23.198C23.2411 3.00429 23.2832 3.01778 23.3183 3.04289C23.3534 3.06799 23.3797 3.10345 23.3937 3.14428C23.4076 3.18512 23.4084 3.22929 23.3959 3.2706C23.3835 3.31192 23.3585 3.34831 23.3243 3.37467Z" fill="white"/>
</svg>
