<svg width="21" height="25" viewBox="0 0 21 25" fill="none" xmlns="http://www.w3.org/2000/svg">
<path d="M10.6984 12.4036C11.3722 12.4036 11.9492 12.1635 12.4294 11.6833C12.9088 11.2039 13.1484 10.6273 13.1484 9.95356C13.1484 9.27981 12.9088 8.70284 12.4294 8.22264C11.9492 7.74325 11.3722 7.50356 10.6984 7.50356C10.0247 7.50356 9.44812 7.74325 8.96874 8.22264C8.48854 8.70284 8.24844 9.27981 8.24844 9.95356C8.24844 10.6273 8.48854 11.2039 8.96874 11.6833C9.44812 12.1635 10.0247 12.4036 10.6984 12.4036ZM10.6984 24.1942C10.5351 24.1942 10.3718 24.1636 10.2084 24.1023C10.0451 24.0411 9.90219 23.9594 9.77969 23.8573C6.79886 21.2236 4.57344 18.7789 3.10344 16.5232C1.63344 14.2668 0.898438 12.1586 0.898438 10.1986C0.898438 7.13606 1.88375 4.69627 3.85436 2.87919C5.82416 1.06211 8.10552 0.153564 10.6984 0.153564C13.2914 0.153564 15.5727 1.06211 17.5425 2.87919C19.5131 4.69627 20.4984 7.13606 20.4984 10.1986C20.4984 12.1586 19.7634 14.2668 18.2934 16.5232C16.8234 18.7789 14.598 21.2236 11.6172 23.8573C11.4947 23.9594 11.3518 24.0411 11.1884 24.1023C11.0251 24.1636 10.8618 24.1942 10.6984 24.1942Z" fill="white"/>
</svg>
