<svg width="23" height="23" viewBox="0 0 23 23" fill="none" xmlns="http://www.w3.org/2000/svg">
<path d="M22.0977 17.4011L17.1181 12.8735C16.8827 12.6596 16.5734 12.5455 16.2554 12.5553C15.9375 12.5651 15.6358 12.6981 15.4141 12.9262L12.4827 15.9409C11.7771 15.8062 10.3585 15.364 8.89832 13.9074C7.43813 12.446 6.9959 11.0238 6.86483 10.3231L9.8771 7.39044C10.1055 7.16887 10.2386 6.86714 10.2485 6.54912C10.2583 6.23109 10.144 5.92171 9.92977 5.68646L5.4034 0.708063C5.18908 0.472075 4.8912 0.328931 4.57304 0.309032C4.25487 0.289132 3.94148 0.394045 3.69943 0.601489L1.04118 2.88121C0.829388 3.09377 0.702978 3.37666 0.685927 3.67624C0.667552 3.98249 0.317202 11.2369 5.9424 16.8646C10.8497 21.7707 16.9968 22.1296 18.6897 22.1296C18.9372 22.1296 19.0891 22.1223 19.1295 22.1198C19.4291 22.1031 19.7118 21.9761 19.9233 21.7634L22.2018 19.1039C22.4101 18.8626 22.5158 18.5495 22.4963 18.2313C22.4769 17.9132 22.3338 17.6152 22.0977 17.4011Z" fill="white"/>
</svg>
